<svg width="40" height="40" viewBox="0 0 40 40" fill="none" xmlns="http://www.w3.org/2000/svg">
<path d="M26.1167 11.0166L20 17.75V22.2666L26.1167 29C27.8167 30.8833 30.4333 31.5 32.8 30.5833C35.15 29.6666 36.6667 27.4333 36.6667 24.9166V15.1C36.6667 12.5666 35.15 10.35 32.8 9.43329C30.4333 8.51662 27.8167 9.13329 26.1167 11.0166ZM30.2333 16.9666V23.0333C30.2333 23.6666 29.7167 24.1666 29.1 24.1666C28.4833 24.1666 27.9667 23.65 27.9667 23.0333V16.9666C27.9667 16.3333 28.4833 15.8333 29.1 15.8333C29.7167 15.8333 30.2333 16.35 30.2333 16.9666Z" fill="#0CBF94"/>
<path d="M26.1167 11.0166L20 17.75V22.2666L26.1167 29C27.8167 30.8833 30.4333 31.5 32.8 30.5833C35.15 29.6666 36.6667 27.4333 36.6667 24.9166V15.1C36.6667 12.5666 35.15 10.35 32.8 9.43329C30.4333 8.51662 27.8167 9.13329 26.1167 11.0166ZM30.2333 16.9666V23.0333C30.2333 23.6666 29.7167 24.1666 29.1 24.1666C28.4833 24.1666 27.9667 23.65 27.9667 23.0333V16.9666C27.9667 16.3333 28.4833 15.8333 29.1 15.8333C29.7167 15.8333 30.2333 16.35 30.2333 16.9666Z" fill="white" fill-opacity="0.9"/>
<path d="M7.20065 9.41673C4.85065 10.3334 3.33398 12.5667 3.33398 15.0834L3.33398 24.9167C3.33398 27.4334 4.85065 29.6667 7.20065 30.5834C9.56732 31.4834 12.184 30.8667 13.884 28.9834L20.0007 22.2501V17.7334L13.884 11.0001C12.184 9.13339 9.56732 8.51673 7.20065 9.41673ZM12.0507 16.9667V23.0334C12.0507 23.6667 11.534 24.1667 10.9173 24.1667C10.3007 24.1667 9.78398 23.6501 9.78398 23.0334V16.9667C9.78398 16.3334 10.3007 15.8334 10.9173 15.8334C11.534 15.8334 12.0507 16.3501 12.0507 16.9667Z" fill="#0CBF94"/>
<path d="M7.20065 9.41673C4.85065 10.3334 3.33398 12.5667 3.33398 15.0834L3.33398 24.9167C3.33398 27.4334 4.85065 29.6667 7.20065 30.5834C9.56732 31.4834 12.184 30.8667 13.884 28.9834L20.0007 22.2501V17.7334L13.884 11.0001C12.184 9.13339 9.56732 8.51673 7.20065 9.41673ZM12.0507 16.9667V23.0334C12.0507 23.6667 11.534 24.1667 10.9173 24.1667C10.3007 24.1667 9.78398 23.6501 9.78398 23.0334V16.9667C9.78398 16.3334 10.3007 15.8334 10.9173 15.8334C11.534 15.8334 12.0507 16.3501 12.0507 16.9667Z" fill="white" fill-opacity="0.9"/>
</svg>
