<svg width="40" height="40" viewBox="0 0 40 40" fill="none" xmlns="http://www.w3.org/2000/svg">
<path d="M36.6673 31.6667V36.6667H3.33398V31.6667C3.33398 30.75 4.08398 30 5.00065 30H35.0007C35.9173 30 36.6673 30.75 36.6673 31.6667Z" fill="#0CBF94"/>
<path d="M36.6673 31.6667V36.6667H3.33398V31.6667C3.33398 30.75 4.08398 30 5.00065 30H35.0007C35.9173 30 36.6673 30.75 36.6673 31.6667Z" fill="white" fill-opacity="0.9"/>
<path d="M36.6673 31.6667V36.6667H3.33398V31.6667C3.33398 30.75 4.08398 30 5.00065 30H35.0007C35.9173 30 36.6673 30.75 36.6673 31.6667Z" stroke="#0CBF94" stroke-width="1.5" stroke-miterlimit="10" stroke-linecap="round" stroke-linejoin="round"/>
<path d="M36.6673 31.6667V36.6667H3.33398V31.6667C3.33398 30.75 4.08398 30 5.00065 30H35.0007C35.9173 30 36.6673 30.75 36.6673 31.6667Z" stroke="white" stroke-opacity="0.9" stroke-width="1.5" stroke-miterlimit="10" stroke-linecap="round" stroke-linejoin="round"/>
<path d="M11.6673 18.3334H8.33398V30H11.6673V18.3334Z" fill="#0CBF94"/>
<path d="M11.6673 18.3334H8.33398V30H11.6673V18.3334Z" fill="white" fill-opacity="0.9"/>
<path d="M18.3333 18.3334H15V30H18.3333V18.3334Z" fill="#0CBF94"/>
<path d="M18.3333 18.3334H15V30H18.3333V18.3334Z" fill="white" fill-opacity="0.9"/>
<path d="M24.9993 18.3334H21.666V30H24.9993V18.3334Z" fill="#0CBF94"/>
<path d="M24.9993 18.3334H21.666V30H24.9993V18.3334Z" fill="white" fill-opacity="0.9"/>
<path d="M31.6673 18.3334H28.334V30H31.6673V18.3334Z" fill="#0CBF94"/>
<path d="M31.6673 18.3334H28.334V30H31.6673V18.3334Z" fill="white" fill-opacity="0.9"/>
<path d="M38.3327 37.9166H1.66602C0.982682 37.9166 0.416016 37.35 0.416016 36.6666C0.416016 35.9833 0.982682 35.4166 1.66602 35.4166H38.3327C39.016 35.4166 39.5827 35.9833 39.5827 36.6666C39.5827 37.35 39.016 37.9166 38.3327 37.9166Z" fill="#0CBF94"/>
<path d="M38.3327 37.9166H1.66602C0.982682 37.9166 0.416016 37.35 0.416016 36.6666C0.416016 35.9833 0.982682 35.4166 1.66602 35.4166H38.3327C39.016 35.4166 39.5827 35.9833 39.5827 36.6666C39.5827 37.35 39.016 37.9166 38.3327 37.9166Z" fill="white" fill-opacity="0.9"/>
<path d="M35.6173 9.58328L20.6173 3.58328C20.284 3.44994 19.7173 3.44994 19.384 3.58328L4.38398 9.58328C3.80065 9.81661 3.33398 10.4999 3.33398 11.1333V16.6666C3.33398 17.5833 4.08398 18.3333 5.00065 18.3333H35.0007C35.9173 18.3333 36.6673 17.5833 36.6673 16.6666V11.1333C36.6673 10.4999 36.2007 9.81661 35.6173 9.58328ZM20.0007 14.1666C18.6173 14.1666 17.5007 13.0499 17.5007 11.6666C17.5007 10.2833 18.6173 9.16661 20.0007 9.16661C21.384 9.16661 22.5007 10.2833 22.5007 11.6666C22.5007 13.0499 21.384 14.1666 20.0007 14.1666Z" fill="#0CBF94"/>
<path d="M35.6173 9.58328L20.6173 3.58328C20.284 3.44994 19.7173 3.44994 19.384 3.58328L4.38398 9.58328C3.80065 9.81661 3.33398 10.4999 3.33398 11.1333V16.6666C3.33398 17.5833 4.08398 18.3333 5.00065 18.3333H35.0007C35.9173 18.3333 36.6673 17.5833 36.6673 16.6666V11.1333C36.6673 10.4999 36.2007 9.81661 35.6173 9.58328ZM20.0007 14.1666C18.6173 14.1666 17.5007 13.0499 17.5007 11.6666C17.5007 10.2833 18.6173 9.16661 20.0007 9.16661C21.384 9.16661 22.5007 10.2833 22.5007 11.6666C22.5007 13.0499 21.384 14.1666 20.0007 14.1666Z" fill="white" fill-opacity="0.9"/>
</svg>
