<svg width="50" height="17" viewBox="0 0 50 17" fill="none" xmlns="http://www.w3.org/2000/svg">
<path d="M0.873047 16.1987V0.372314H7.14177C7.72272 0.372314 8.3599 0.409796 9.0533 0.484758C9.76544 0.55972 10.4495 0.728386 11.1054 0.990754C11.7613 1.25312 12.2954 1.66541 12.7077 2.22763C13.1387 2.78985 13.3543 3.56758 13.3543 4.56083C13.3543 5.16053 13.2324 5.71338 12.9888 6.21937C12.7639 6.72537 12.3329 7.14703 11.6957 7.48436C11.0773 7.80295 10.1871 7.99035 9.02519 8.04658V8.13091C10.3745 8.16839 11.4146 8.36517 12.1455 8.72124C12.8764 9.05857 13.3824 9.50834 13.6635 10.0706C13.9446 10.6328 14.0851 11.2606 14.0851 11.954C14.0851 12.966 13.8603 13.7624 13.4105 14.3434C12.9607 14.9056 12.3798 15.3273 11.6676 15.6084C10.9555 15.8708 10.2058 16.0394 9.41874 16.1144C8.65038 16.1706 7.93824 16.1987 7.28232 16.1987H0.873047ZM3.68413 6.95025H6.80443C7.46036 6.95025 8.06942 6.91277 8.63164 6.83781C9.2126 6.76285 9.67174 6.58481 10.0091 6.3037C10.3464 6.00385 10.5151 5.52597 10.5151 4.87005C10.5151 4.17665 10.337 3.68002 9.98096 3.38017C9.64363 3.08033 9.19386 2.89292 8.63164 2.81796C8.06942 2.743 7.46036 2.70551 6.80443 2.70551H3.68413V6.95025ZM3.71224 13.8936H7.05743C7.78831 13.8936 8.46298 13.8468 9.08141 13.7531C9.69985 13.6594 10.1965 13.4532 10.5713 13.1346C10.9461 12.7973 11.1335 12.2726 11.1335 11.5604C11.1335 10.8296 10.9367 10.2954 10.5432 9.95811C10.1496 9.60204 9.63426 9.37716 8.99708 9.28345C8.3599 9.18975 7.65713 9.1429 6.88877 9.1429H3.71224V13.8936Z" fill="#051F25"/>
<path d="M0.873047 16.1987V0.372314H7.14177C7.72272 0.372314 8.3599 0.409796 9.0533 0.484758C9.76544 0.55972 10.4495 0.728386 11.1054 0.990754C11.7613 1.25312 12.2954 1.66541 12.7077 2.22763C13.1387 2.78985 13.3543 3.56758 13.3543 4.56083C13.3543 5.16053 13.2324 5.71338 12.9888 6.21937C12.7639 6.72537 12.3329 7.14703 11.6957 7.48436C11.0773 7.80295 10.1871 7.99035 9.02519 8.04658V8.13091C10.3745 8.16839 11.4146 8.36517 12.1455 8.72124C12.8764 9.05857 13.3824 9.50834 13.6635 10.0706C13.9446 10.6328 14.0851 11.2606 14.0851 11.954C14.0851 12.966 13.8603 13.7624 13.4105 14.3434C12.9607 14.9056 12.3798 15.3273 11.6676 15.6084C10.9555 15.8708 10.2058 16.0394 9.41874 16.1144C8.65038 16.1706 7.93824 16.1987 7.28232 16.1987H0.873047ZM3.68413 6.95025H6.80443C7.46036 6.95025 8.06942 6.91277 8.63164 6.83781C9.2126 6.76285 9.67174 6.58481 10.0091 6.3037C10.3464 6.00385 10.5151 5.52597 10.5151 4.87005C10.5151 4.17665 10.337 3.68002 9.98096 3.38017C9.64363 3.08033 9.19386 2.89292 8.63164 2.81796C8.06942 2.743 7.46036 2.70551 6.80443 2.70551H3.68413V6.95025ZM3.71224 13.8936H7.05743C7.78831 13.8936 8.46298 13.8468 9.08141 13.7531C9.69985 13.6594 10.1965 13.4532 10.5713 13.1346C10.9461 12.7973 11.1335 12.2726 11.1335 11.5604C11.1335 10.8296 10.9367 10.2954 10.5432 9.95811C10.1496 9.60204 9.63426 9.37716 8.99708 9.28345C8.3599 9.18975 7.65713 9.1429 6.88877 9.1429H3.71224V13.8936Z" fill="#051F25"/>
<path d="M20.0888 16.4798C18.7582 16.4798 17.6713 16.1987 16.8279 15.6365C16.0033 15.0555 15.3849 14.3247 14.9726 13.4439C14.5791 12.5443 14.3729 11.5979 14.3542 10.6047C14.3354 9.44275 14.5509 8.41202 15.0007 7.51247C15.4692 6.59418 16.1252 5.88204 16.9685 5.37605C17.8305 4.85131 18.8425 4.58894 20.0045 4.58894C21.0352 4.58894 21.9535 4.81383 22.7593 5.2636C23.5839 5.71338 24.2398 6.35055 24.7271 7.17514C25.2143 7.98098 25.4673 8.93675 25.4861 10.0424C25.4861 10.0799 25.4861 10.183 25.4861 10.3517C25.4861 10.5203 25.4861 10.6609 25.4861 10.7733H17.0809C17.0809 11.8415 17.3433 12.6661 17.868 13.2471C18.3928 13.8093 19.1143 14.0904 20.0326 14.0904C20.7447 14.0904 21.335 13.9124 21.8035 13.5563C22.2908 13.2002 22.5813 12.7317 22.675 12.1508H25.458C25.3268 13.3689 24.802 14.3996 23.8838 15.243C22.9655 16.0675 21.7005 16.4798 20.0888 16.4798ZM17.1653 9.48023H22.6188C22.6 9.34905 22.5532 9.1429 22.4782 8.86179C22.422 8.58068 22.3002 8.2902 22.1128 7.99035C21.9441 7.69051 21.6817 7.43751 21.3257 7.23136C20.9696 7.02522 20.5104 6.92214 19.9482 6.92214C19.1986 6.92214 18.627 7.08144 18.2335 7.40003C17.8587 7.69988 17.5869 8.05595 17.4183 8.46824C17.2683 8.86179 17.184 9.19912 17.1653 9.48023Z" fill="#051F25"/>
<path d="M20.0888 16.4798C18.7582 16.4798 17.6713 16.1987 16.8279 15.6365C16.0033 15.0555 15.3849 14.3247 14.9726 13.4439C14.5791 12.5443 14.3729 11.5979 14.3542 10.6047C14.3354 9.44275 14.5509 8.41202 15.0007 7.51247C15.4692 6.59418 16.1252 5.88204 16.9685 5.37605C17.8305 4.85131 18.8425 4.58894 20.0045 4.58894C21.0352 4.58894 21.9535 4.81383 22.7593 5.2636C23.5839 5.71338 24.2398 6.35055 24.7271 7.17514C25.2143 7.98098 25.4673 8.93675 25.4861 10.0424C25.4861 10.0799 25.4861 10.183 25.4861 10.3517C25.4861 10.5203 25.4861 10.6609 25.4861 10.7733H17.0809C17.0809 11.8415 17.3433 12.6661 17.868 13.2471C18.3928 13.8093 19.1143 14.0904 20.0326 14.0904C20.7447 14.0904 21.335 13.9124 21.8035 13.5563C22.2908 13.2002 22.5813 12.7317 22.675 12.1508H25.458C25.3268 13.3689 24.802 14.3996 23.8838 15.243C22.9655 16.0675 21.7005 16.4798 20.0888 16.4798ZM17.1653 9.48023H22.6188C22.6 9.34905 22.5532 9.1429 22.4782 8.86179C22.422 8.58068 22.3002 8.2902 22.1128 7.99035C21.9441 7.69051 21.6817 7.43751 21.3257 7.23136C20.9696 7.02522 20.5104 6.92214 19.9482 6.92214C19.1986 6.92214 18.627 7.08144 18.2335 7.40003C17.8587 7.69988 17.5869 8.05595 17.4183 8.46824C17.2683 8.86179 17.184 9.19912 17.1653 9.48023Z" fill="#051F25"/>
<path d="M33.3266 16.4798C32.6332 16.4798 32.0428 16.3768 31.5556 16.1706C31.0683 15.9457 30.6654 15.6834 30.3468 15.3835C30.047 15.0837 29.8221 14.8119 29.6722 14.5683C29.541 14.3247 29.466 14.1841 29.4473 14.1466H29.3911L28.9132 16.1987H26.4394V0.372314H29.3911V7.17514H29.4473C29.466 7.11892 29.541 6.95962 29.6722 6.69726C29.8034 6.43489 30.0095 6.14441 30.2906 5.82582C30.5905 5.50723 30.984 5.23549 31.4713 5.0106C31.9773 4.76698 32.5957 4.64516 33.3266 4.64516C35.0132 4.64516 36.2314 5.18864 36.981 6.27559C37.7306 7.36255 38.1054 8.81494 38.1054 10.6328C38.1054 12.3944 37.7306 13.8093 36.981 14.8775C36.2501 15.9457 35.032 16.4798 33.3266 16.4798ZM32.3989 14.0623C33.1673 14.0623 33.7576 13.903 34.1699 13.5844C34.6009 13.2471 34.8914 12.8161 35.0413 12.2913C35.21 11.7478 35.2943 11.1856 35.2943 10.6047C35.2943 10.0237 35.21 9.48023 35.0413 8.97423C34.8727 8.4495 34.5635 8.02784 34.1137 7.70925C33.6826 7.37192 33.083 7.20325 32.3146 7.20325C31.2651 7.20325 30.5155 7.53121 30.0657 8.18713C29.6347 8.82431 29.4192 9.63015 29.4192 10.6047C29.4192 11.6167 29.6441 12.4506 30.0938 13.1065C30.5623 13.7437 31.3307 14.0623 32.3989 14.0623Z" fill="#051F25"/>
<path d="M33.3266 16.4798C32.6332 16.4798 32.0428 16.3768 31.5556 16.1706C31.0683 15.9457 30.6654 15.6834 30.3468 15.3835C30.047 15.0837 29.8221 14.8119 29.6722 14.5683C29.541 14.3247 29.466 14.1841 29.4473 14.1466H29.3911L28.9132 16.1987H26.4394V0.372314H29.3911V7.17514H29.4473C29.466 7.11892 29.541 6.95962 29.6722 6.69726C29.8034 6.43489 30.0095 6.14441 30.2906 5.82582C30.5905 5.50723 30.984 5.23549 31.4713 5.0106C31.9773 4.76698 32.5957 4.64516 33.3266 4.64516C35.0132 4.64516 36.2314 5.18864 36.981 6.27559C37.7306 7.36255 38.1054 8.81494 38.1054 10.6328C38.1054 12.3944 37.7306 13.8093 36.981 14.8775C36.2501 15.9457 35.032 16.4798 33.3266 16.4798ZM32.3989 14.0623C33.1673 14.0623 33.7576 13.903 34.1699 13.5844C34.6009 13.2471 34.8914 12.8161 35.0413 12.2913C35.21 11.7478 35.2943 11.1856 35.2943 10.6047C35.2943 10.0237 35.21 9.48023 35.0413 8.97423C34.8727 8.4495 34.5635 8.02784 34.1137 7.70925C33.6826 7.37192 33.083 7.20325 32.3146 7.20325C31.2651 7.20325 30.5155 7.53121 30.0657 8.18713C29.6347 8.82431 29.4192 9.63015 29.4192 10.6047C29.4192 11.6167 29.6441 12.4506 30.0938 13.1065C30.5623 13.7437 31.3307 14.0623 32.3989 14.0623Z" fill="#051F25"/>
<path d="M44.2094 16.4798C42.8976 16.4798 41.8106 16.2268 40.9486 15.7208C40.0865 15.2148 39.44 14.5214 39.0089 13.6406C38.5779 12.7411 38.3624 11.7197 38.3624 10.5766C38.3436 8.85242 38.8215 7.43751 39.796 6.33181C40.7893 5.20738 42.2604 4.64516 44.2094 4.64516C46.1022 4.64516 47.5359 5.18864 48.5104 6.27559C49.5036 7.36255 50.0003 8.7962 50.0003 10.5766C50.0003 11.6822 49.7941 12.6849 49.3818 13.5844C48.9695 14.484 48.3324 15.1961 47.4703 15.7208C46.6082 16.2268 45.5213 16.4798 44.2094 16.4798ZM44.2094 14.0623C45.034 14.0623 45.6618 13.8843 46.0929 13.5282C46.5426 13.1721 46.8425 12.7223 46.9924 12.1789C47.1423 11.6167 47.2173 11.0544 47.2173 10.4922C47.2173 9.91126 47.1423 9.33967 46.9924 8.77746C46.8425 8.21524 46.5426 7.7561 46.0929 7.40003C45.6618 7.04396 45.034 6.86592 44.2094 6.86592C43.3661 6.86592 42.7196 7.05333 42.2698 7.42814C41.8387 7.78421 41.5389 8.24335 41.3702 8.80557C41.2203 9.34904 41.1453 9.91126 41.1453 10.4922C41.1453 11.0544 41.2203 11.6167 41.3702 12.1789C41.5389 12.7223 41.8387 13.1721 42.2698 13.5282C42.7196 13.8843 43.3661 14.0623 44.2094 14.0623Z" fill="#051F25"/>
<path d="M44.2094 16.4798C42.8976 16.4798 41.8106 16.2268 40.9486 15.7208C40.0865 15.2148 39.44 14.5214 39.0089 13.6406C38.5779 12.7411 38.3624 11.7197 38.3624 10.5766C38.3436 8.85242 38.8215 7.43751 39.796 6.33181C40.7893 5.20738 42.2604 4.64516 44.2094 4.64516C46.1022 4.64516 47.5359 5.18864 48.5104 6.27559C49.5036 7.36255 50.0003 8.7962 50.0003 10.5766C50.0003 11.6822 49.7941 12.6849 49.3818 13.5844C48.9695 14.484 48.3324 15.1961 47.4703 15.7208C46.6082 16.2268 45.5213 16.4798 44.2094 16.4798ZM44.2094 14.0623C45.034 14.0623 45.6618 13.8843 46.0929 13.5282C46.5426 13.1721 46.8425 12.7223 46.9924 12.1789C47.1423 11.6167 47.2173 11.0544 47.2173 10.4922C47.2173 9.91126 47.1423 9.33967 46.9924 8.77746C46.8425 8.21524 46.5426 7.7561 46.0929 7.40003C45.6618 7.04396 45.034 6.86592 44.2094 6.86592C43.3661 6.86592 42.7196 7.05333 42.2698 7.42814C41.8387 7.78421 41.5389 8.24335 41.3702 8.80557C41.2203 9.34904 41.1453 9.91126 41.1453 10.4922C41.1453 11.0544 41.2203 11.6167 41.3702 12.1789C41.5389 12.7223 41.8387 13.1721 42.2698 13.5282C42.7196 13.8843 43.3661 14.0623 44.2094 14.0623Z" fill="#051F25"/>
</svg>
