<svg width="1440" height="480" viewBox="0 0 1440 480" fill="none" xmlns="http://www.w3.org/2000/svg">
<g clip-path="url(#clip0_35_3)">
<rect width="1440" height="480" fill="#033025"/>
<g opacity="0.5">
<g opacity="0.5" filter="url(#filter0_f_35_3)">
<rect width="98.4877" height="1077.81" transform="matrix(0.755757 -0.654852 0.726862 0.686783 -354.646 225.495)" fill="url(#paint0_linear_35_3)"/>
</g>
<g filter="url(#filter1_f_35_3)">
<rect width="42.2471" height="409.187" transform="matrix(0.755757 -0.654852 0.726862 0.686783 -62.0175 458.973)" fill="url(#paint1_linear_35_3)"/>
</g>
</g>
<g opacity="0.5">
<g opacity="0.5" filter="url(#filter2_f_35_3)">
<rect x="-210" y="-134.376" width="139.703" height="1523.8" transform="rotate(-43.7601 -210 -134.376)" fill="url(#paint2_linear_35_3)"/>
</g>
<g filter="url(#filter3_f_35_3)">
<rect x="-24.6758" y="22.2725" width="70" height="422.186" transform="rotate(-43.7601 -24.6758 22.2725)" fill="url(#paint3_linear_35_3)"/>
</g>
</g>
<path d="M1356 20L1356.27 20.7299L1357 21L1356.27 21.2701L1356 22L1355.73 21.2701L1355 21L1355.73 20.7299L1356 20Z" fill="#E7F9F4" fill-opacity="0.6"/>
<path d="M1392 460L1392.27 460.73L1393 461L1392.27 461.27L1392 462L1391.73 461.27L1391 461L1391.73 460.73L1392 460Z" fill="#E7F9F4" fill-opacity="0.6"/>
<path d="M97 135L97.2701 135.73L98 136L97.2701 136.27L97 137L96.7299 136.27L96 136L96.7299 135.73L97 135Z" fill="#E7F9F4" fill-opacity="0.6"/>
<path d="M176 12L176.27 12.7299L177 13L176.27 13.2701L176 14L175.73 13.2701L175 13L175.73 12.7299L176 12Z" fill="#E7F9F4" fill-opacity="0.3"/>
<path d="M606 238L606.54 239.46L608 240L606.54 240.54L606 242L605.46 240.54L604 240L605.46 239.46L606 238Z" fill="#E7F9F4" fill-opacity="0.9"/>
<path d="M606 238L606.54 239.46L608 240L606.54 240.54L606 242L605.46 240.54L604 240L605.46 239.46L606 238Z" fill="#E7F9F4" fill-opacity="0.9"/>
<path d="M587 22L587.54 23.4598L589 24L587.54 24.5402L587 26L586.46 24.5402L585 24L586.46 23.4598L587 22Z" fill="#E7F9F4" fill-opacity="0.9"/>
<path d="M763 58L763.54 59.4598L765 60L763.54 60.5402L763 62L762.46 60.5402L761 60L762.46 59.4598L763 58Z" fill="#E7F9F4" fill-opacity="0.9"/>
<path d="M306 158L306.54 159.46L308 160L306.54 160.54L306 162L305.46 160.54L304 160L305.46 159.46L306 158Z" fill="#E7F9F4" fill-opacity="0.9"/>
<path d="M415 158L415.27 158.73L416 159L415.27 159.27L415 160L414.73 159.27L414 159L414.73 158.73L415 158Z" fill="#E7F9F4" fill-opacity="0.6"/>
<path d="M415 88L415.27 88.7299L416 89L415.27 89.2701L415 90L414.73 89.2701L414 89L414.73 88.7299L415 88Z" fill="#E7F9F4" fill-opacity="0.6"/>
<path d="M495 258L495.27 258.73L496 259L495.27 259.27L495 260L494.73 259.27L494 259L494.73 258.73L495 258Z" fill="#E7F9F4" fill-opacity="0.6"/>
<path d="M97 236L97.2701 236.73L98 237L97.2701 237.27L97 238L96.7299 237.27L96 237L96.7299 236.73L97 236Z" fill="#E7F9F4" fill-opacity="0.6"/>
<path d="M99 419L99.2701 419.73L100 420L99.2701 420.27L99 421L98.7299 420.27L98 420L98.7299 419.73L99 419Z" fill="#E7F9F4" fill-opacity="0.6"/>
<path d="M743 385L743.27 385.73L744 386L743.27 386.27L743 387L742.73 386.27L742 386L742.73 385.73L743 385Z" fill="#E7F9F4" fill-opacity="0.6"/>
<path d="M761 260L761.27 260.73L762 261L761.27 261.27L761 262L760.73 261.27L760 261L760.73 260.73L761 260Z" fill="#E7F9F4" fill-opacity="0.6"/>
<path d="M54 38L54.5402 39.4598L56 40L54.5402 40.5402L54 42L53.4598 40.5402L52 40L53.4598 39.4598L54 38Z" fill="#E7F9F4"/>
<path d="M54 355L54.5402 356.46L56 357L54.5402 357.54L54 359L53.4598 357.54L52 357L53.4598 356.46L54 355Z" fill="#E7F9F4"/>
<path d="M1357 138L1357.54 139.46L1359 140L1357.54 140.54L1357 142L1356.46 140.54L1355 140L1356.46 139.46L1357 138Z" fill="#E7F9F4"/>
<path d="M1267.48 272L1267.75 272.73L1268.48 273L1267.75 273.27L1267.48 274L1267.21 273.27L1266.48 273L1267.21 272.73L1267.48 272Z" fill="#E7F9F4" fill-opacity="0.6"/>
</g>
<defs>
<filter id="filter0_f_35_3" x="-474.646" y="41" width="1097.85" height="1044.71" filterUnits="userSpaceOnUse" color-interpolation-filters="sRGB">
<feFlood flood-opacity="0" result="BackgroundImageFix"/>
<feBlend mode="normal" in="SourceGraphic" in2="BackgroundImageFix" result="shape"/>
<feGaussianBlur stdDeviation="60" result="effect1_foregroundBlur_35_3"/>
</filter>
<filter id="filter1_f_35_3" x="-112.017" y="381.307" width="429.351" height="408.688" filterUnits="userSpaceOnUse" color-interpolation-filters="sRGB">
<feFlood flood-opacity="0" result="BackgroundImageFix"/>
<feBlend mode="normal" in="SourceGraphic" in2="BackgroundImageFix" result="shape"/>
<feGaussianBlur stdDeviation="25" result="effect1_foregroundBlur_35_3"/>
</filter>
<filter id="filter2_f_35_3" x="-330" y="-351" width="1394.82" height="1437.18" filterUnits="userSpaceOnUse" color-interpolation-filters="sRGB">
<feFlood flood-opacity="0" result="BackgroundImageFix"/>
<feBlend mode="normal" in="SourceGraphic" in2="BackgroundImageFix" result="shape"/>
<feGaussianBlur stdDeviation="60" result="effect1_foregroundBlur_35_3"/>
</filter>
<filter id="filter3_f_35_3" x="-74.6758" y="-76.1423" width="442.558" height="453.336" filterUnits="userSpaceOnUse" color-interpolation-filters="sRGB">
<feFlood flood-opacity="0" result="BackgroundImageFix"/>
<feBlend mode="normal" in="SourceGraphic" in2="BackgroundImageFix" result="shape"/>
<feGaussianBlur stdDeviation="25" result="effect1_foregroundBlur_35_3"/>
</filter>
<linearGradient id="paint0_linear_35_3" x1="-18.3456" y1="-137.22" x2="35.3752" y2="1418.84" gradientUnits="userSpaceOnUse">
<stop stop-color="#6CCEAC"/>
<stop offset="1" stop-color="#033025"/>
</linearGradient>
<linearGradient id="paint1_linear_35_3" x1="68.3723" y1="-95.7401" x2="41.0931" y2="424.933" gradientUnits="userSpaceOnUse">
<stop stop-color="#98D6C0"/>
<stop offset="1" stop-color="#033025"/>
</linearGradient>
<linearGradient id="paint2_linear_35_3" x1="-236.023" y1="-328.378" x2="-149.891" y2="1337.02" gradientUnits="userSpaceOnUse">
<stop stop-color="#6CCEAC"/>
<stop offset="1" stop-color="#033025"/>
</linearGradient>
<linearGradient id="paint3_linear_35_3" x1="32.8452" y1="-86.1877" x2="128.334" y2="421.833" gradientUnits="userSpaceOnUse">
<stop stop-color="#98D6C0"/>
<stop offset="1" stop-color="#033025"/>
</linearGradient>
<clipPath id="clip0_35_3">
<rect width="1440" height="480" fill="white"/>
</clipPath>
</defs>
</svg>
