<svg width="40" height="40" viewBox="0 0 40 40" fill="none" xmlns="http://www.w3.org/2000/svg">
<path d="M36.6661 14.1667C36.6661 19.6 32.6661 24.0834 27.4661 24.8667V24.7667C26.9495 18.3 21.6995 13.05 15.1828 12.5334H15.1328C15.9161 7.33337 20.3995 3.33337 25.8328 3.33337C31.8161 3.33337 36.6661 8.18337 36.6661 14.1667Z" fill="#0CBF94"/>
<path d="M36.6661 14.1667C36.6661 19.6 32.6661 24.0834 27.4661 24.8667V24.7667C26.9495 18.3 21.6995 13.05 15.1828 12.5334H15.1328C15.9161 7.33337 20.3995 3.33337 25.8328 3.33337C31.8161 3.33337 36.6661 8.18337 36.6661 14.1667Z" fill="white" fill-opacity="0.9"/>
<path d="M24.9673 24.9667C24.5506 19.6833 20.3173 15.45 15.034 15.0333C14.7507 15.0167 14.4507 15 14.1673 15C8.18398 15 3.33398 19.85 3.33398 25.8333C3.33398 31.8167 8.18398 36.6667 14.1673 36.6667C20.1507 36.6667 25.0007 31.8167 25.0007 25.8333C25.0007 25.55 24.984 25.25 24.9673 24.9667ZM15.634 27.3L14.1673 30L12.7007 27.3L10.0007 25.8333L12.7007 24.3667L14.1673 21.6667L15.634 24.3667L18.334 25.8333L15.634 27.3Z" fill="#0CBF94"/>
<path d="M24.9673 24.9667C24.5506 19.6833 20.3173 15.45 15.034 15.0333C14.7507 15.0167 14.4507 15 14.1673 15C8.18398 15 3.33398 19.85 3.33398 25.8333C3.33398 31.8167 8.18398 36.6667 14.1673 36.6667C20.1507 36.6667 25.0007 31.8167 25.0007 25.8333C25.0007 25.55 24.984 25.25 24.9673 24.9667ZM15.634 27.3L14.1673 30L12.7007 27.3L10.0007 25.8333L12.7007 24.3667L14.1673 21.6667L15.634 24.3667L18.334 25.8333L15.634 27.3Z" fill="white" fill-opacity="0.9"/>
</svg>
