<svg width="16" height="19" viewBox="0 0 16 19" fill="none" xmlns="http://www.w3.org/2000/svg">
<path d="M0 12.064V13.6982C0 16.5445 2.30737 18.8519 5.15366 18.8519H10.3073C13.1536 18.8519 15.461 16.5445 15.461 13.6982C15.461 11.9121 14.5524 10.3382 13.1722 9.41357C11.9071 11.0272 9.93988 12.064 7.73048 12.064H0Z" fill="#051F25"/>
<path d="M0 12.064V13.6982C0 16.5445 2.30737 18.8519 5.15366 18.8519H10.3073C13.1536 18.8519 15.461 16.5445 15.461 13.6982C15.461 11.9121 14.5524 10.3382 13.1722 9.41357C11.9071 11.0272 9.93988 12.064 7.73048 12.064H0Z" fill="#051F25"/>
<path d="M0 4.29472C0 1.92281 1.92281 0 4.29471 0H7.73048C10.5768 0 12.8841 2.30737 12.8841 5.15366C12.8841 7.99994 10.5768 10.3073 7.73048 10.3073H0V4.29472Z" fill="#051F25"/>
<path d="M0 4.29472C0 1.92281 1.92281 0 4.29471 0H7.73048C10.5768 0 12.8841 2.30737 12.8841 5.15366C12.8841 7.99994 10.5768 10.3073 7.73048 10.3073H0V4.29472Z" fill="#051F25"/>
</svg>
