<svg width="180" height="157" viewBox="0 0 180 157" fill="none" xmlns="http://www.w3.org/2000/svg">
<path fill-rule="evenodd" clip-rule="evenodd" d="M95.5692 1.16998C106.013 -2.64816 116.858 6.57254 127.088 10.9302C137.432 15.3362 155.111 15.8591 156.302 27.039C158.024 43.2061 139.401 54.3773 133.322 69.4567C131.283 74.5142 129.372 81.2934 132.685 85.6243C146.034 103.073 180.411 108.502 179.996 130.467C179.69 146.706 147.263 126.592 131.818 131.615C122.191 134.746 120.177 149.386 110.719 152.997C101.288 156.599 87.7696 158.415 80.8252 151.088C71.8074 141.573 85.5957 116.005 72.8307 113.02C49.8283 107.641 28.1248 141.295 5.80899 133.546C-7.82677 128.811 6.49513 105.058 8.92732 90.8297C10.9403 79.0537 8.38001 62.4354 18.9248 56.82C34.044 48.7686 54.3021 65.906 69.7251 58.4531C78.1857 54.3647 69.0101 39.315 72.8744 30.7498C78.0417 19.2966 83.7681 5.48423 95.5692 1.16998Z" fill="#0CBF94"/>
</svg>
