<svg width="135" height="157" viewBox="0 0 135 157" fill="none" xmlns="http://www.w3.org/2000/svg">
<path fill-rule="evenodd" clip-rule="evenodd" d="M55.5543 0.0984153C70.2454 2.24944 54.2781 39.1449 68.8272 42.1082C88.3867 46.0921 100.694 11.9324 120.605 13.3479C132.587 14.1997 138.12 35.72 133.216 46.6858C126.346 62.0473 93.3135 59.0048 92.6651 75.8202C91.9551 94.2357 137.532 98.1671 130.573 115.232C124.075 131.168 94.4193 96.1371 80.3423 106.037C66.5709 115.723 87.3936 146.258 73.3194 155.498C62.2688 162.753 49.636 141.978 43.1061 130.484C37.1363 119.975 48.3219 102.414 38.8777 94.873C30.0243 87.8038 15.4382 106.562 5.76376 100.666C-1.17826 96.4357 8.82703 84.9117 9.20646 76.791C9.52772 69.9154 8.57585 63.2563 7.83142 56.4136C6.68061 45.8353 -5.67285 30.3711 3.58591 25.1271C15.0261 18.6477 28.5848 43.6554 40.4302 37.9505C52.8069 31.9897 41.9619 -1.89173 55.5543 0.0984153Z" fill="#F2EC94"/>
</svg>
